<?xml version="1.0" encoding="utf-8"?>
<!-- Generator: Adobe Illustrator 26.0.0, SVG Export Plug-In . SVG Version: 6.00 Build 0)  -->
<svg version="1.1" id="圖層_1" xmlns="http://www.w3.org/2000/svg" xmlns:xlink="http://www.w3.org/1999/xlink" x="0px" y="0px"
	 viewBox="0 0 1532.8 1588.6" style="enable-background:new 0 0 1532.8 1588.6;" xml:space="preserve">
<style type="text/css">
	.st0{fill:#254671;}
</style>
<g>
	<path class="st0" d="M446.7,1352.4c0.9,36.4,11.6,73.6,30.5,108.7c16.6,30.9,38.3,57.6,63.7,81.5c0.4,0.3,0.8,0.7,1.1,1
		c0.8,1,2.6,1.8,1.8,3.2c-0.8,1.6-2.4,0.4-3.6,0.1c-14.4-4.3-28.3-9.7-42.2-15.4c-24-9.9-47.7-20.5-70.7-32.6
		c-36.9-19.4-72.2-41.3-105.8-65.9c-39.1-28.6-74.8-61-108.1-96.2c-29.2-30.9-55.6-64.1-79.5-99.4c-19.7-29-37.5-59-53.1-90.4
		c-14.8-29.8-28.1-60.4-39.5-91.7c-0.5-1.5-2.1-3.5-0.5-4.6c1.9-1.3,3.2,1.2,4.3,2.3c25,24.8,52.5,46.3,84.3,61.6
		c30.9,14.9,63.3,25,98.1,23.8c37-1.3,69.9-13.3,97.4-39.1c21.6-20.2,36.9-44.2,49.2-70.9c14.5-31.3,30.4-61.9,45.6-92.9
		c21.9-44.5,43.7-89.1,65.6-133.7c17.8-36.2,35.7-72.3,53.4-108.5c30.1-61.5,60.2-123,90.3-184.4c9.3-19,17.4-38.6,28.4-56.7
		c20.4-33.6,48.2-58.1,87-68c26.5-6.7,53.2-7.3,80.1-1.5c42.1,9,72.6,33.6,93.8,70.1c15.4,26.5,27.6,54.7,41.3,82.1
		c16.2,32.5,31.9,65.2,47.9,97.8c21,42.9,42.1,85.8,63.2,128.7c22.7,46.2,45.4,92.3,68.1,138.5c23.8,48.4,47.5,96.9,71.3,145.3
		c14.5,29.6,9.5,66.2-11.9,91.3c-12.2,14.3-24.8,28.3-38.5,41.2c-20.2,19-41.5,36.5-64.7,51.7c-4.5,3-5.2,2.5-7.4-2.7
		c-12.2-28.8-24.8-57.5-41.5-84.1c-19.8-31.6-48.3-51.2-83.9-61.2c-21.1-5.9-42.7-6.6-64.3-6.6c-41.9-0.1-83.9,0-125.8-0.1
		c-36.6,0-73.3-0.2-109.9,0.1c-26.4,0.2-52.1,4.7-76,16.7c-28.4,14.3-49.1,36.3-64.5,64.1c-17.8,32.3-33.8,65.4-51.2,97.8
		C454.5,1283.5,446.8,1315.2,446.7,1352.4z M787.1,900.8c10.5,0,21,0,31.5,0c23,0,46,0.2,68.9-0.1c19.2-0.2,28.5-10.6,26.8-29.1
		c-0.3-3.4-1.5-6.5-2.8-9.5c-3.2-7.1-6.4-14.3-9.8-21.4c-19.4-40.8-38.8-81.5-58.3-122.2c-10.5-21.9-20.9-43.9-31.6-65.8
		c-5.9-12-15.9-17.4-28.3-15.8c-11.6,1.5-17.9,9.2-22.5,19c-28.4,59.9-56.8,119.8-85.2,179.7c-4.6,9.6-9.5,19.1-13.3,29.1
		c-4.9,12.7-2.3,27.7,11.5,33.6c4.5,2,9.2,2.6,14.1,2.5C721.2,900.8,754.1,900.8,787.1,900.8z"/>
	<path class="st0" d="M0,788.2c0.9-26.2,1.8-52.5,4.6-78.7c2.9-26.8,7-53.5,12.6-79.8c5.9-27.7,13.3-54.9,22-81.9
		c10.3-31.7,22.5-62.7,36.9-92.7c17.6-36.9,37.8-72.2,60.8-106.1c32.2-47.3,68.9-90.7,110.5-129.9c39.3-37.1,81.8-70.3,127.8-98.9
		c35.2-21.9,71.9-40.6,109.9-56.7c29.7-12.6,60.2-23.2,91.3-32.1c22.6-6.5,45.3-12.2,68.4-16c3-0.5,7.1-2.4,8.8,0.2
		c1.6,2.3-1.9,5.2-3.4,7.7c-17,28.1-26.1,58.4-25.1,91.3c1.1,40.2,14.6,75.9,41.2,106.4c2.4,2.8,4.8,5.5,7.3,8.2
		c3.3,3.6,3.1,4.6-1.7,5.7c-12.5,2.9-24.9,6.2-37.2,9.8c-48.7,14.3-94.7,34.5-138,60.9c-36.5,22.3-70,48.5-100.7,78.4
		C353,426,316.6,473.1,288.5,526.5c-20.6,39.2-37,80-48.5,122.8c-5.3,20-9.1,40.2-12.4,60.6c-5.4,34.1-7.4,68.5-6.3,103
		c1,30,4.6,59.7,10.1,89.2c10,52.9,28.1,103,52.5,150.9c2.3,4.6,4.5,9.3,7.1,13.8c1.8,3.1,1.4,5.4-1.1,7.9
		c-11,11.3-24.7,17.4-39.9,20.4c-29,5.6-56.9,0.8-84.2-9.6c-37.2-14.3-69.4-36-96.2-65.4c-24.5-27-42.5-57.9-53.8-92.7
		c-7.4-23-10.5-46.7-12.9-70.6C0.9,833.9,0.9,811.1,0,788.2z"/>
	<path class="st0" d="M808.2,1588.4c-25,0.6-49.9-0.4-74.7-2.8c-19.4-1.9-38.6-4.9-57.4-10.5c-37.1-11.1-70.1-29.4-99.9-54.1
		c-27.2-22.6-48.2-50.1-64.4-81.3c-13.1-25.2-21-52.1-23.4-80.6c-2-23.9,1.9-46.8,10.3-69c2.1-5.5,2.7-5.6,7.9-2.6
		c30.2,17.4,61.2,33,94,44.9c22.1,8,44.3,15.3,67.2,20.6c26.1,6.1,52.5,10.3,79.2,12.8c16.3,1.5,32.6,2.2,48.9,2.3
		c22.5,0.2,44.9-1.3,67.2-4.1c26.1-3.4,51.9-8.2,77.3-15.2c20.5-5.7,40.6-12.7,60.5-20.4c34.1-13.2,66.4-29.9,97.4-49.4
		c29.5-18.6,57-39.8,82.7-63.4c26-23.9,49.4-49.9,70.6-78c20.3-26.9,38.3-55.3,53.4-85.4c9.2-18.3,17.5-37.1,27.9-54.7
		c17.2-29,43.4-45.8,76.7-51.1c36.4-5.8,67.5,5.8,93.3,31.1c18.3,18,27.4,40.7,29.5,66.5c2.2,28.1-6,53.6-17.2,78.6
		c-27.1,60.8-62.9,116.1-104.3,168c-18.1,22.7-37.5,44.2-58,64.7c-24.4,24.3-50.5,46.8-77.9,67.9c-42.8,32.9-88.3,61.3-136.7,85
		c-29,14.2-58.8,26.6-89.3,37.1c-29.1,10.1-58.8,18.1-88.7,25.2c-20.1,4.8-40.4,8.6-60.8,11c-19.3,2.3-38.6,4.8-58,5.7
		C830.5,1587.7,819.4,1588.1,808.2,1588.4z"/>
	<path class="st0" d="M1412.7,616.1c-38-1.6-69.4-17.3-92-48.6c-9.1-12.7-15.2-27.3-22.7-41.1c-20.2-37.1-43.9-71.8-71.6-103.9
		c-31.8-36.9-67.5-69.5-107.4-97.4c-38.6-27-79.8-49.2-123.9-66c-28.5-10.8-57.6-19.5-87.6-25.4c-4.5-0.9-4.9-2.3-1.8-5.8
		c10.9-12.2,21-25,28.6-39.6c8.7-16.8,14.3-34.6,17.2-53.4c2.7-17.7,2.4-35.2-0.8-52.6c-4.2-22.6-12.6-43.8-24.9-63.3
		c-0.9-1.5-2.8-3-1.6-4.9c1.2-1.9,3.3-1,5-0.7c20.6,3.7,41.3,7.3,61.5,12.8c20.8,5.7,41.6,11.6,62,18.7c26.1,9,51.8,19.3,76.8,31
		c34,15.9,66.6,34.3,98,54.8c34,22.1,65.7,47.1,95.9,74.2c30.9,27.8,59.3,58,85.5,90.1c31.3,38.3,58.6,79.2,81.9,122.8
		c8.9,16.7,18.6,33.2,24.1,51.5c12.1,40.3,6.5,77.4-21.6,109.8C1472.2,603.6,1444.8,614.6,1412.7,616.1z"/>
	<path class="st0" d="M901.7,111.5c0.1,63.3-50.5,113.9-114.2,113.3c-56.9-0.5-111-46.1-111-112.4C676.4,50.1,726.8-0.3,789.5,0
		C855.3,0.3,901.9,53.7,901.7,111.5z"/>
</g>
</svg>
